<svg xmlns="http://www.w3.org/2000/svg" width="244" height="76" viewBox="0 0 244 76" fill="none" class="injected-svg" data-src="https://cowberry-static.s3.ap-south-1.amazonaws.com/static/uploads/assets/home/cowberry_logo.svg" xmlns:xlink="http://www.w3.org/1999/xlink" role="img">
<g clipPath="url(#clip0_9737_58429)">
<path fillRule="evenodd" clipRule="evenodd" d="M16.6902 62.2901C21.3355 67.47 27.9116 70.4256 34.8909 70.4256C48.4141 70.4256 59.3756 59.4288 59.3756 45.8627C59.3756 32.2963 48.4141 21.2998 34.8909 21.2998C22.2648 21.2998 11.6823 30.9529 10.5143 43.5596L10.4277 44.4928C12.3264 46.3716 14.6759 47.8459 16.2594 50.0174C18.9925 53.7654 18.1756 58.232 16.6899 62.2904L16.6902 62.2901Z" fill="#377355"></path>
<mask id="mask0_9737_58429-4" style="mask-type:luminance" maskUnits="userSpaceOnUse" x="10" y="21" width="50" height="50">
<path d="M16.6902 62.2901C21.3355 67.47 27.9116 70.4256 34.8909 70.4256C48.4141 70.4256 59.3756 59.4288 59.3756 45.8627C59.3756 32.2963 48.4141 21.2998 34.8909 21.2998C22.2648 21.2998 11.6823 30.9529 10.5143 43.5596L10.4277 44.4928C12.3264 46.3716 14.6759 47.8459 16.2594 50.0174C18.9925 53.7654 18.1756 58.232 16.6899 62.2904L16.6902 62.2901Z" fill="white"></path>
</mask>
<g mask="url(#mask0_9737_58429-4)">
<path fillRule="evenodd" clipRule="evenodd" d="M64.223 48.0823C62.2689 47.6782 60.2615 47.3283 58.2007 47.0317C53.1649 46.3071 47.8074 45.903 42.1287 45.819C46.8726 44.1806 52.2005 43.2612 57.832 43.2612C60.0136 43.2612 62.149 43.3997 64.2227 43.6642V48.0823H64.223ZM45.0829 51.6618C47.8913 52.5754 50.5678 53.4973 53.1123 54.4279C52.9081 54.4256 52.704 54.4242 52.4998 54.4242C51.1167 54.4242 49.7279 54.479 48.3408 54.5897L47.6363 53.9003C46.8263 53.1076 45.9729 52.3622 45.0829 51.6618ZM59.5243 54.9007C53.5407 52.486 46.6966 50.1258 38.9918 47.8198C38.8863 47.767 38.7799 47.7148 38.6738 47.6626C45.5536 47.6092 51.9759 48.0119 57.9396 48.8704C60.0945 49.1805 62.1886 49.55 64.2227 49.9792V55.7799C62.6726 55.4101 61.1035 55.1176 59.5243 54.9007Z" fill="#D2AF6E"></path>
<path fillRule="evenodd" clipRule="evenodd" d="M5.76688 58.4754C8.88588 61.9176 11.8439 65.3178 14.6399 68.6749L5.76688 63.8731V58.4757V58.4754ZM5.76688 45.638C9.50669 44.7019 13.53 44.1919 17.7221 44.1919C29.6963 44.1919 40.2996 48.3469 46.8254 54.7341C44.4505 54.9948 42.0889 55.4235 39.7762 56.0281C37.4186 54.7638 35.0749 53.6148 32.7452 52.5815C23.5328 48.496 14.5402 46.2178 5.7666 45.7444V45.6382L5.76688 45.638ZM30.4442 59.6324C22.9756 54.265 14.8858 50.1498 5.76688 47.7988V47.2323C14.3363 47.7062 23.1303 49.9427 32.1485 53.9422C33.9937 54.7606 35.8484 55.6528 37.7125 56.6186C35.7083 57.2434 33.7504 58.0067 31.8641 58.9136C31.3877 59.1426 30.9138 59.3826 30.444 59.6324H30.4442ZM23.7876 64.1832C18.0922 59.2107 12.1087 54.818 5.76688 51.0888V49.3352C14.3147 51.5933 21.945 55.4411 29.0097 60.4347C27.1648 61.5196 25.4004 62.7692 23.7876 64.1832ZM18.091 70.5421C14.2975 65.8684 10.1896 61.1131 5.76688 56.2762V52.8158C11.703 56.3725 17.3242 60.5226 22.6892 65.1952C21.0171 66.8143 19.5429 68.6276 18.3582 70.6336L18.3343 70.6739L18.091 70.5421Z" fill="#FEFEFE"></path>
<path fillRule="evenodd" clipRule="evenodd" d="M55.0879 68.8158C57.9613 66.4657 61.0032 64.3386 64.2226 62.3474V63.8725L55.0879 68.8156V68.8158ZM32.9061 78.559C37.0082 74.4484 41.2708 71.1749 45.6426 68.5182C51.3631 65.0425 57.2856 62.615 63.2895 60.7444C58.4389 63.7429 53.9728 67.0533 49.8546 70.9643C49.3287 71.4639 48.8085 71.9731 48.2941 72.4926L34.9954 79.6892L32.9064 78.559H32.9061ZM26.0813 74.8658C30.6808 70.5414 35.5167 67.1122 40.6091 64.5547C47.5778 61.0553 55.041 59.1823 63.0485 58.8751C56.8186 60.7972 50.6583 63.3053 44.6862 66.9339C40.0519 69.7499 35.5403 73.2368 31.2102 77.6414L26.0813 74.8658ZM19.3567 71.2268C24.7813 62.0416 37.5762 55.5884 52.4994 55.5884C56.6047 55.5884 60.5486 56.0776 64.2226 56.9773V56.984C55.4847 57.1469 47.3578 59.0938 39.783 62.8977C34.3605 65.6205 29.2293 69.2924 24.3666 73.9381L19.3564 71.2268H19.3567Z" fill="#D2AF6E"></path>
</g>
<path fillRule="evenodd" clipRule="evenodd" d="M9.07034 61.9477C6.71621 58.4013 5.32795 54.3481 5.91799 50.0142L5.95336 49.7546L6.4761 49.7578L6.50831 50.018C8.27585 64.3641 20.4712 75.1578 34.8907 75.1578C50.6884 75.1578 63.495 62.3105 63.495 46.4621C63.495 30.614 50.6887 17.7661 34.8907 17.7661C21.7151 17.7664 10.226 26.8137 7.10497 39.6261C7.47245 40.9467 8.03546 42.1343 8.81356 43.2377C10.4112 30.0806 21.5935 20.1044 34.8904 20.1044C49.401 20.1044 61.1642 31.9048 61.1642 46.4618C61.1639 61.0185 49.401 72.8193 34.8904 72.8193C27.0925 72.8193 19.7589 69.3782 14.7505 63.3856L14.6369 63.2498L14.7016 63.0848C15.5548 60.9075 16.3449 58.3277 16.2653 55.9618C16.2112 54.3559 15.7618 52.9739 14.8155 51.6761C14.0739 50.659 13.1147 49.8034 12.1594 48.9934C11.0921 48.0882 10.0089 47.2187 9.0226 46.221C6.55633 43.7255 5.32191 40.9969 4.92423 37.6138C-0.605249 47.1916 -2.55883 57.0196 9.06976 61.9474L9.07034 61.9477Z" fill="#D2AF6E"></path>
<path fillRule="evenodd" clipRule="evenodd" d="M34.9946 9.99805C37.4715 8.87651 39.8999 6.9989 41.7353 5.00072C42.8518 3.78543 44.0371 2.22282 44.5955 0.653297L44.6662 0.454834H47.5491L47.4508 0.830123C46.8679 3.05504 45.3279 5.22918 43.7918 6.90054C42.2738 8.55199 40.4577 10.0681 38.5395 11.2638C39.0013 11.3991 39.4662 11.5255 39.9332 11.6423C40.4862 11.7808 41.042 11.9065 41.601 12.0196C42.8029 10.3154 44.2605 8.82804 46.0306 7.71371C49.0381 5.82024 52.4058 5.33072 55.8931 5.64774L57.6005 5.80322L57.1028 7.44862C56.279 10.1726 54.6699 12.2726 52.1501 13.6012C49.8322 14.8235 47.0994 15.1855 44.4983 15.1624C45.4044 17.2797 45.8891 19.5583 45.9251 21.8643C45.9725 24.8793 45.2525 27.8542 43.8294 30.5095C43.8493 30.6177 43.8651 30.7267 43.8775 30.836C44.0069 31.9524 43.7679 33.0783 43.2026 34.0481C42.5835 35.1099 41.113 35.6389 39.9856 35.9078C38.3957 36.2871 36.6256 36.4138 34.9941 36.4138C33.3623 36.4138 31.5924 36.2868 30.0026 35.9078C28.8751 35.6389 27.4046 35.1099 26.7855 34.0481C26.2202 33.0783 25.9813 31.9524 26.1107 30.836C26.123 30.727 26.1391 30.6185 26.1584 30.5104C24.7359 27.8548 24.0156 24.8796 24.0628 21.8643C24.099 19.5583 24.5838 17.2797 25.4896 15.1624C22.8887 15.1855 20.1562 14.8235 17.8386 13.6012C15.3185 12.2729 13.7112 10.1723 12.8865 7.4489L12.3882 5.80322L14.0962 5.64774C17.5838 5.33043 20.951 5.81995 23.959 7.71371C25.7288 8.82804 27.1861 10.3154 28.3877 12.0196C28.9464 11.9065 29.5028 11.7808 30.0561 11.6423C30.523 11.5252 30.9877 11.3991 31.4498 11.2638C29.5319 10.0684 27.7146 8.55227 26.1972 6.90054C24.6617 5.22947 23.1202 3.05475 22.5382 0.830411L22.4402 0.455121H25.3222L25.3927 0.653584C25.9517 2.2234 27.1372 3.78571 28.2537 5.00101C30.0891 6.9989 32.5174 8.8768 34.9944 9.99834L34.9946 9.99805Z" fill="#D2AF6E"></path>
<path fillRule="evenodd" clipRule="evenodd" d="M35.2122 12.5543H35.2176L35.2565 12.5693C35.452 12.6449 35.6484 12.7179 35.8459 12.788C37.0059 13.1999 38.1877 13.5564 39.3816 13.8559C39.7732 13.9542 40.1666 14.0457 40.5608 14.1325L40.8515 14.1965L40.7094 14.4587C40.0501 15.6761 39.4948 16.9516 39.0181 18.2515L39.0144 18.2708L39.0089 18.2869C38.3073 20.3157 37.84 22.5914 38.1839 24.7384C38.4893 26.6446 39.3816 28.2115 40.8578 29.4496L40.8693 29.4591L40.8794 29.4704C41.2897 29.9201 41.5485 30.4881 41.6187 31.0938C41.6911 31.7186 41.5629 32.3512 41.246 32.895C41.0004 33.3167 39.902 33.5795 39.4609 33.6848C38.0436 34.0223 36.4495 34.1279 34.9951 34.1279C33.5407 34.1279 31.9462 34.0223 30.5286 33.6848C30.0878 33.5798 28.9894 33.3164 28.7441 32.895C28.4273 32.3509 28.2993 31.7189 28.3718 31.0938C28.4419 30.4878 28.7001 29.9198 29.111 29.4704L29.1211 29.4594L29.1326 29.4499C30.6089 28.2115 31.5008 26.6446 31.8059 24.7387C32.1498 22.592 31.682 20.3154 30.9815 18.2869L30.9763 18.2722L30.9726 18.2529C30.4956 16.9528 29.9403 15.6763 29.2804 14.4587L29.1384 14.1965L29.4291 14.1325C29.8233 14.0457 30.2164 13.9542 30.608 13.8559C31.8022 13.5564 32.9843 13.1999 34.1442 12.788C34.342 12.7176 34.5384 12.6443 34.7346 12.5693L34.7731 12.5543H34.7774L34.9951 12.4709L35.2125 12.5543H35.2122Z" fill="#FEFEFE"></path>
<path fillRule="evenodd" clipRule="evenodd" d="M29.2569 18.671L29.264 18.6687L29.3362 18.8787C29.9357 20.6199 30.3731 22.6206 30.0778 24.4651C29.8386 25.9605 29.1185 27.1833 27.9583 28.1482L27.9071 28.1906L27.6673 28.4323L27.5376 28.1242C26.7115 26.1612 26.2986 24.0298 26.3319 21.9029V21.8954C26.3639 19.83 26.8122 17.7912 27.6466 15.9032L27.8378 15.4702L28.0506 15.8928C28.5049 16.7943 28.9026 17.7246 29.2563 18.6704L29.2569 18.671Z" fill="#377355"></path>
<path fillRule="evenodd" clipRule="evenodd" d="M54.3992 8.15947C53.6694 9.6615 52.5661 10.8061 51.0916 11.5832C49.0391 12.6647 46.5308 12.9243 44.246 12.8779L43.7905 12.8686L44.0763 12.513C44.9758 11.3931 46.0233 10.4078 47.2399 9.64217C49.3537 8.31178 51.7273 7.80668 54.2008 7.83697L54.5539 7.8413L54.3992 8.15947Z" fill="#377355"></path>
<path fillRule="evenodd" clipRule="evenodd" d="M42.0826 28.1914L42.0306 28.1479C40.8723 27.1809 40.1506 25.9605 39.9111 24.4651C39.6155 22.6203 40.0534 20.6196 40.6529 18.8781L40.7222 18.6768L40.7297 18.6788C41.0837 17.7303 41.4825 16.7977 41.9368 15.8934L42.1493 15.4702L42.3408 15.9032C43.1764 17.7912 43.6244 19.83 43.656 21.8992V21.8995C43.6897 24.0298 43.2762 26.1612 42.4512 28.1242L42.3233 28.4285L42.0823 28.1911L42.0826 28.1914Z" fill="#377355"></path>
<path fillRule="evenodd" clipRule="evenodd" d="M18.8978 11.5835C17.4235 10.8064 16.3194 9.66174 15.5904 8.15972L15.436 7.84154L15.7889 7.83722C18.262 7.80693 20.6357 8.31231 22.7492 9.64242C23.9655 10.4083 25.0136 11.3934 25.9127 12.5135L26.1983 12.8692L25.7431 12.8784C23.4585 12.9248 20.9503 12.6652 18.8981 11.5838L18.8978 11.5835Z" fill="#377355"></path>
<path d="M80.2683 49.686C78.3895 49.686 76.7452 49.3561 75.3364 48.6967C73.9273 48.0372 72.7476 47.1732 71.7976 46.1049C70.848 45.0371 70.1378 43.8118 69.6682 42.4295C69.1987 41.0471 68.9639 39.6439 68.9639 38.2198C68.9639 36.7954 69.1987 35.3922 69.6682 34.0102C70.1378 32.6279 70.848 31.403 71.7976 30.3347C72.7476 29.2665 73.9273 28.4028 75.3364 27.743C76.7456 27.0836 78.3895 26.7536 80.2683 26.7536C81.4376 26.7536 82.5857 26.9474 83.7131 27.3349C84.8404 27.7221 85.8736 28.2721 86.8132 28.9841L84.621 32.0628C84.1618 31.644 83.5615 31.2773 82.8205 30.9632C82.0795 30.6492 81.2394 30.4922 80.2995 30.4922C78.6502 30.4922 77.278 30.8743 76.1815 31.6389C75.0858 32.4032 74.2662 33.3566 73.7234 34.4976C73.1805 35.6389 72.9091 36.8801 72.9091 38.2202C72.9091 39.5604 73.1805 40.8012 73.7234 41.9425C74.2662 43.0839 75.0858 44.0369 76.1815 44.8015C77.2776 45.5658 78.6502 45.9479 80.2995 45.9479C81.4688 45.9479 82.3976 45.775 83.0866 45.4296C83.7751 45.0842 84.2871 44.7543 84.621 44.4403L86.8132 47.4559C85.9157 48.1892 84.9607 48.7439 83.9479 49.121C82.9354 49.4981 81.709 49.6864 80.2687 49.6864L80.2683 49.686ZM110.737 38.2198C110.737 40.1255 110.414 41.801 109.767 43.2459C109.12 44.6909 108.269 45.8903 107.214 46.8429C106.16 47.7959 104.96 48.513 103.613 48.9949C102.267 49.4768 100.883 49.7178 99.4639 49.7178C98.0443 49.7178 96.656 49.4768 95.2989 48.9949C93.9422 48.513 92.7366 47.7959 91.6822 46.8429C90.6277 45.8903 89.7772 44.6909 89.1299 43.2459C88.4826 41.8006 88.1591 40.1255 88.1591 38.2198C88.1591 36.293 88.4826 34.612 89.1299 33.1779C89.7772 31.7434 90.6277 30.5494 91.6822 29.5964C92.7366 28.6438 93.9422 27.9263 95.2989 27.4444C96.656 26.9629 98.0443 26.7219 99.4639 26.7219C100.883 26.7219 102.266 26.9629 103.613 27.4444C104.96 27.9263 106.16 28.6434 107.214 29.5964C108.269 30.5494 109.119 31.743 109.767 33.1779C110.414 34.6124 110.737 36.293 110.737 38.2198ZM107.074 38.2198C107.074 36.9211 106.854 35.7956 106.416 34.8426C105.978 33.8899 105.404 33.0886 104.694 32.4396C103.984 31.7902 103.17 31.3086 102.251 30.9942C101.333 30.6801 100.404 30.5231 99.4643 30.5231C98.5039 30.5231 97.5697 30.6801 96.6618 30.9942C95.7535 31.3086 94.9446 31.7902 94.2348 32.4396C93.525 33.0886 92.951 33.8899 92.5126 34.8426C92.0739 35.7956 91.8545 36.9215 91.8545 38.2198C91.8545 39.4973 92.0739 40.6174 92.5126 41.5809C92.951 42.5443 93.525 43.3504 94.2348 43.9997C94.9446 44.6491 95.7535 45.1307 96.6618 45.4451C97.5697 45.7592 98.5039 45.9162 99.4643 45.9162C100.404 45.9162 101.333 45.7592 102.251 45.4451C103.17 45.1311 103.984 44.6491 104.694 43.9997C105.404 43.3507 105.978 42.5443 106.416 41.5809C106.854 40.6174 107.074 39.497 107.074 38.2198ZM121.541 49.529L112.303 27.2247H116.28L121.979 40.9528L126.99 29.6119H127.679L132.689 40.9528L138.388 27.2247H142.365L133.127 49.529H132.47L127.334 37.6544L122.199 49.529H121.541H121.541ZM145.872 27.2247H153.481C155.11 27.2247 156.451 27.5601 157.505 28.2299C158.559 28.9002 159.322 29.7325 159.791 30.7273C160.261 31.7225 160.438 32.7745 160.324 33.8845C160.209 34.9946 159.807 35.9893 159.118 36.8688C159.953 37.3925 160.61 38.0624 161.091 38.8793C161.571 39.6962 161.879 40.5598 162.015 41.471C162.15 42.3823 162.109 43.2981 161.889 44.2198C161.67 45.1415 161.279 45.9738 160.715 46.7176C160.151 47.461 159.41 48.0632 158.491 48.5238C157.573 48.9844 156.487 49.215 155.235 49.215H145.872V27.2247H145.872ZM149.63 35.8323H153.481C154.463 35.8323 155.204 35.5654 155.705 35.0313C156.206 34.4972 156.456 33.9108 156.456 33.2723C156.456 32.6333 156.206 32.0474 155.705 31.5128C155.204 30.9791 154.463 30.7118 153.481 30.7118H149.63V35.8323ZM149.63 45.6965H155.235C155.903 45.6965 156.456 45.5391 156.895 45.2254C157.333 44.911 157.662 44.5238 157.881 44.0632C158.101 43.6021 158.21 43.0943 158.21 42.5397C158.21 41.9847 158.101 41.4768 157.881 41.0162C157.662 40.5556 157.333 40.168 156.895 39.854C156.457 39.5399 155.903 39.3829 155.235 39.3829H149.63V45.6973V45.6965ZM172.677 36.9002H184.545V27.2243H191.466C192.907 27.2243 194.138 27.4757 195.161 27.9785C196.184 28.481 196.993 29.1358 197.588 29.9422C198.183 30.7482 198.574 31.6386 198.762 32.6124C198.95 33.5863 198.924 34.5393 198.684 35.4711C198.444 36.4032 197.995 37.2668 197.338 38.0628C196.68 38.8588 195.808 39.466 194.723 39.8849L201.08 49.215H196.602L190.683 40.4503H188.303V49.215H184.545V40.4503H172.677V36.9006V36.9002ZM180.412 27.2243V30.7432H169.984V45.6965H180.412V49.215H166.227V27.2247H180.412V27.2243ZM191.466 36.9002C192.26 36.9002 192.922 36.7482 193.455 36.4446C193.987 36.1409 194.384 35.7638 194.645 35.3136C194.906 34.8634 195.036 34.3711 195.036 33.837C195.036 33.3028 194.9 32.8109 194.629 32.3603C194.358 31.9101 193.961 31.533 193.439 31.2294C192.917 30.9257 192.26 30.7737 191.466 30.7737H188.304V36.8994H191.466V36.9002ZM204.587 27.2243H211.508C212.948 27.2243 214.18 27.4757 215.203 27.9785C216.226 28.481 217.035 29.1358 217.63 29.9422C218.225 30.7482 218.616 31.6386 218.804 32.6124C218.992 33.5863 218.966 34.5393 218.726 35.4711C218.486 36.4032 218.037 37.2668 217.38 38.0628C216.722 38.8588 215.85 39.466 214.765 39.8849L221.122 49.215H216.644L210.725 40.4503H208.345V49.215H204.587V27.2247L204.587 27.2243ZM208.345 36.9002H211.508C212.301 36.9002 212.964 36.7482 213.496 36.4446C214.028 36.1409 214.426 35.7638 214.686 35.3136C214.947 34.8634 215.078 34.3711 215.078 33.837C215.078 33.3028 214.942 32.8109 214.671 32.3603C214.399 31.9101 214.003 31.533 213.481 31.2294C212.959 30.9257 212.302 30.7737 211.508 30.7737H208.345V36.8994L208.345 36.9002ZM226.1 27.2243L231.173 36.5861L236.246 27.2243H240.285L233.051 40.4813V49.2146H229.294V40.4813L222.06 27.2243H226.1Z" fill="#377355"></path>
<path d="M71.71 64.7084C71.1352 64.7084 70.6425 64.5885 70.233 64.3491C69.8232 64.1097 69.5101 63.7682 69.2931 63.3245C69.076 62.8809 68.9673 62.3572 68.9673 61.7527C68.9673 61.1486 69.076 60.6261 69.2931 60.1851C69.5101 59.7442 69.8236 59.4038 70.233 59.1644C70.6428 58.925 71.1352 58.8051 71.71 58.8051C72.1225 58.8051 72.4888 58.8662 72.8088 58.9888C73.1292 59.1111 73.4083 59.2894 73.647 59.5234L73.3702 60.136C73.1095 59.9074 72.8531 59.7427 72.601 59.6421C72.3489 59.5415 72.057 59.4912 71.7262 59.4912C71.0916 59.4912 70.6058 59.687 70.2696 60.0791C69.9335 60.4709 69.765 61.029 69.765 61.7531C69.765 62.4771 69.9331 63.0364 70.2696 63.4309C70.6062 63.8258 71.0916 64.0231 71.7262 64.0231C72.0574 64.0231 72.3489 63.9728 72.601 63.8718C72.8531 63.7713 73.1095 63.6065 73.3702 63.3779L73.647 63.9821C73.4083 64.2161 73.1277 64.3955 72.8046 64.5208C72.4819 64.6461 72.1171 64.7084 71.71 64.7084ZM74.3633 61.7527C74.3633 61.1486 74.4693 60.6261 74.681 60.1851C74.8926 59.7442 75.198 59.4038 75.5966 59.1644C75.9953 58.925 76.4714 58.8051 77.0251 58.8051C77.5733 58.8051 78.0464 58.9246 78.4454 59.1644C78.844 59.4038 79.1521 59.7442 79.3691 60.1851C79.5862 60.6261 79.6949 61.1459 79.6949 61.7446C79.6949 62.3487 79.5862 62.8724 79.3691 63.3164C79.1521 63.7601 78.844 64.1031 78.4454 64.3452C78.0464 64.5873 77.5733 64.7088 77.0251 64.7088C76.4718 64.7088 75.9968 64.5873 75.6009 64.3452C75.2045 64.1031 74.8996 63.7601 74.6852 63.3164C74.4709 62.8728 74.3633 62.3514 74.3633 61.7527ZM75.161 61.7527C75.161 62.4713 75.3183 63.0318 75.6329 63.4348C75.9475 63.8374 76.4117 64.0389 77.0247 64.0389C77.6161 64.0389 78.0757 63.839 78.4041 63.439C78.7322 63.0391 78.8965 62.4767 78.8965 61.7527C78.8965 61.0287 78.7338 60.4678 78.4084 60.0706C78.0826 59.6734 77.6215 59.4746 77.0247 59.4746C76.4117 59.4746 75.9475 59.6734 75.6329 60.0706C75.3183 60.4682 75.161 61.0287 75.161 61.7527ZM80.8909 64.6349V58.8782H81.5582L83.8206 63.9898H83.5769L85.8393 58.8782H86.4985V64.6349H85.8069V59.8912H86.059L83.9347 64.6349H83.4547L81.3304 59.8912H81.5825V64.6349H80.8909ZM87.8984 64.6349V58.8782H88.5658L90.8281 63.9898H90.5841L92.8468 58.8782H93.5061V64.6349H92.8144V59.8912H93.0666L90.9423 64.6349H90.4619L88.3379 59.8912H88.5901V64.6349H87.8984ZM97.193 64.7084C96.4061 64.7084 95.8216 64.5084 95.4392 64.1081C95.0567 63.7082 94.8655 63.1188 94.8655 62.3402V58.8782H95.6304V62.3158C95.6304 62.8875 95.7553 63.3176 96.0048 63.6061C96.2546 63.8946 96.6506 64.0389 97.193 64.0389C97.7143 64.0389 98.106 63.8946 98.3693 63.6061C98.6326 63.3176 98.7641 62.8875 98.7641 62.3158V58.8782H99.5128V62.3402C99.5128 63.1188 99.3177 63.7078 98.9268 64.1081C98.5362 64.5081 97.9583 64.7084 97.193 64.7084ZM100.872 64.6349V58.8782H101.458L105.056 63.6467H104.86V58.8782H105.568V64.6349H104.991L101.393 59.8664H101.58V64.6349H100.872ZM106.96 64.6349V58.8782H107.717V64.6349H106.96ZM110.484 64.6349V59.5234H108.498V58.8782H113.243V59.5234H111.249V64.6349H110.484ZM115.538 64.6349V61.9403L115.7 62.4385L113.308 58.8782H114.186L116.026 61.6869H115.838L117.678 58.8782H118.533L116.14 62.4385L116.294 61.9403V64.6349H115.538ZM135.999 66.2025C135.841 66.0988 135.677 65.9658 135.506 65.8026C135.336 65.6394 135.175 65.4568 135.026 65.2557C134.877 65.0542 134.748 64.8504 134.639 64.643L135.282 64.3982C135.423 64.6813 135.607 64.9385 135.832 65.1698C136.057 65.4011 136.286 65.5984 136.52 65.7616L135.999 66.2025ZM131.791 61.7523C131.791 61.1482 131.897 60.6257 132.108 60.1847C132.32 59.7438 132.625 59.4035 133.024 59.164C133.423 58.9246 133.899 58.8047 134.452 58.8047C135.001 58.8047 135.474 58.9242 135.873 59.164C136.271 59.4035 136.579 59.7438 136.796 60.1847C137.013 60.6257 137.122 61.1455 137.122 61.7442C137.122 62.3483 137.013 62.872 136.796 63.316C136.579 63.7597 136.271 64.1027 135.873 64.3448C135.474 64.587 135 64.7084 134.452 64.7084C133.899 64.7084 133.424 64.587 133.028 64.3448C132.632 64.1027 132.327 63.7597 132.112 63.316C131.898 62.8724 131.791 62.351 131.791 61.7523ZM132.588 61.7523C132.588 62.4709 132.746 63.0314 133.06 63.4344C133.375 63.837 133.839 64.0385 134.452 64.0385C135.043 64.0385 135.503 63.8386 135.832 63.4386C136.16 63.0387 136.324 62.4764 136.324 61.7523C136.324 61.0283 136.161 60.4675 135.836 60.0703C135.51 59.673 135.049 59.4742 134.452 59.4742C133.839 59.4742 133.375 59.673 133.061 60.0703C132.746 60.4679 132.588 61.0283 132.588 61.7523ZM140.605 64.708C139.818 64.708 139.233 64.5081 138.851 64.1078C138.468 63.7078 138.277 63.1184 138.277 62.3398V58.8778H139.042V62.3155C139.042 62.8871 139.167 63.3172 139.417 63.6057C139.666 63.8943 140.062 64.0385 140.605 64.0385C141.126 64.0385 141.518 63.8943 141.781 63.6057C142.044 63.3172 142.176 62.8871 142.176 62.3155V58.8778H142.925V62.3398C142.925 63.1184 142.729 63.7075 142.339 64.1078C141.948 64.5077 141.37 64.708 140.605 64.708ZM143.657 64.6345L146.196 58.8778H146.855L149.436 64.6345H148.654L147.946 63.0016L148.272 63.1973H144.78L145.138 63.0016L144.43 64.6345H143.657ZM146.514 59.7272L145.244 62.7483L145.048 62.5765H148.003L147.848 62.7483L146.546 59.7272H146.514ZM150.249 64.6345V58.8778H151.006V63.9813H153.863V64.6345H150.249ZM154.718 64.6345V58.8778H155.475V64.6345H154.718ZM158.242 64.6345V59.523H156.256V58.8778H161.001V59.523H159.007V64.6345H158.242ZM163.296 64.6345V61.9399L163.458 62.4381L161.066 58.8778H161.944L163.784 61.6866H163.596L165.436 58.8778H166.291L163.898 62.4381L164.052 61.9399V64.6345H163.296ZM181.657 64.708C181.196 64.708 180.781 64.6481 180.412 64.5282C180.043 64.4087 179.722 64.2396 179.451 64.0219L179.712 63.4177C179.902 63.5593 180.094 63.6777 180.289 63.7728C180.485 63.868 180.695 63.9387 180.92 63.9852C181.145 64.0316 181.391 64.0544 181.657 64.0544C182.129 64.0544 182.477 63.9685 182.703 63.7972C182.928 63.6258 183.041 63.3984 183.041 63.1153C183.041 62.8705 182.962 62.6825 182.805 62.5518C182.647 62.4211 182.373 62.3178 181.983 62.2416L181.112 62.0621C180.586 61.9531 180.194 61.7747 179.936 61.5272C179.678 61.2797 179.549 60.9436 179.549 60.5189C179.549 60.1762 179.64 59.8753 179.822 59.6166C180.004 59.3582 180.256 59.1579 180.579 59.0163C180.902 58.8747 181.28 58.804 181.714 58.804C182.116 58.804 182.488 58.8639 182.829 58.9834C183.171 59.1033 183.459 59.2801 183.692 59.5145L183.432 60.0942C183.188 59.8711 182.926 59.709 182.647 59.6085C182.367 59.5079 182.051 59.4576 181.699 59.4576C181.27 59.4576 180.931 59.55 180.681 59.7353C180.431 59.9206 180.307 60.1708 180.307 60.4864C180.307 60.737 180.385 60.9343 180.543 61.0786C180.7 61.2228 180.961 61.3331 181.324 61.4093L182.195 61.5806C182.748 61.6893 183.154 61.861 183.412 62.095C183.67 62.329 183.799 62.6531 183.799 63.0666C183.799 63.3934 183.712 63.6804 183.538 63.9279C183.364 64.1754 183.117 64.3677 182.797 64.5038C182.477 64.6399 182.098 64.708 181.658 64.708H181.657ZM187.159 64.708C186.372 64.708 185.787 64.5081 185.405 64.1078C185.022 63.7078 184.831 63.1184 184.831 62.3398V58.8778H185.596V62.3155C185.596 62.8871 185.721 63.3172 185.97 63.6057C186.22 63.8943 186.616 64.0385 187.159 64.0385C187.68 64.0385 188.072 63.8943 188.335 63.6057C188.598 63.3172 188.73 62.8871 188.73 62.3155V58.8778H189.478V62.3398C189.478 63.1184 189.283 63.7075 188.892 64.1078C188.502 64.5077 187.924 64.708 187.159 64.708ZM192.734 64.708C192.273 64.708 191.858 64.6481 191.489 64.5282C191.12 64.4087 190.8 64.2396 190.528 64.0219L190.788 63.4177C190.979 63.5593 191.171 63.6777 191.366 63.7728C191.561 63.868 191.772 63.9387 191.997 63.9852C192.222 64.0316 192.467 64.0544 192.734 64.0544C193.205 64.0544 193.554 63.9685 193.779 63.7972C194.005 63.6258 194.117 63.3984 194.117 63.1153C194.117 62.8705 194.039 62.6825 193.881 62.5518C193.724 62.4211 193.45 62.3178 193.059 62.2416L192.189 62.0621C191.662 61.9531 191.27 61.7747 191.013 61.5272C190.755 61.2797 190.626 60.9436 190.626 60.5189C190.626 60.1762 190.717 59.8753 190.899 59.6166C191.081 59.3582 191.333 59.1579 191.656 59.0163C191.979 58.8747 192.357 58.804 192.791 58.804C193.193 58.804 193.565 58.8639 193.906 58.9834C194.248 59.1033 194.536 59.2801 194.769 59.5145L194.509 60.0942C194.265 59.8711 194.003 59.709 193.724 59.6085C193.444 59.5079 193.128 59.4576 192.776 59.4576C192.347 59.4576 192.008 59.55 191.758 59.7353C191.508 59.9206 191.384 60.1708 191.384 60.4864C191.384 60.737 191.462 60.9343 191.62 61.0786C191.777 61.2228 192.038 61.3331 192.401 61.4093L193.272 61.5806C193.825 61.6893 194.231 61.861 194.489 62.095C194.746 62.329 194.876 62.6531 194.876 63.0666C194.876 63.3934 194.789 63.6804 194.615 63.9279C194.441 64.1754 194.194 64.3677 193.874 64.5038C193.554 64.6399 193.175 64.708 192.735 64.708H192.734ZM197.202 64.6345V59.523H195.216V58.8778H199.961V59.523H197.967V64.6345H197.202ZM199.554 64.6345L202.094 58.8778H202.753L205.333 64.6345H204.552L203.844 63.0016L204.169 63.1973H200.678L201.036 63.0016L200.328 64.6345H199.554ZM202.411 59.7272L201.141 62.7483L200.946 62.5765H203.9L203.746 62.7483L202.444 59.7272H202.411ZM206.147 64.6345V58.8778H206.904V64.6345H206.147ZM208.295 64.6345V58.8778H208.881L212.479 63.6463H212.283V58.8778H212.992V64.6345H212.414L208.817 59.866H209.004V64.6345H208.295Z" fill="black"></path>
<path d="M220.023 64.6864V58.9297H222.359C222.978 58.9297 223.452 59.0604 223.783 59.3215C224.114 59.5829 224.28 59.9504 224.28 60.4238C224.28 60.7831 224.172 61.0825 223.958 61.3219C223.744 61.5613 223.452 61.7218 223.083 61.8038V61.6812C223.507 61.7299 223.836 61.8769 224.072 62.1221C224.308 62.3669 224.426 62.691 224.426 63.0937C224.426 63.6054 224.255 63.9983 223.913 64.2733C223.571 64.5483 223.089 64.6856 222.465 64.6856L220.023 64.6864ZM220.755 64.0823H222.391C222.793 64.0823 223.109 64.0045 223.34 63.8494C223.57 63.6943 223.686 63.4371 223.686 63.0778C223.686 62.7131 223.57 62.4547 223.34 62.3023C223.109 62.1499 222.793 62.0737 222.391 62.0737H220.755V64.0823ZM220.755 61.4692H222.253C222.682 61.4692 223.002 61.3861 223.213 61.2202C223.425 61.0542 223.531 60.8133 223.531 60.4973C223.531 60.1817 223.425 59.9407 223.213 59.7748C223.002 59.6089 222.682 59.5257 222.253 59.5257H220.755V61.4692ZM225.582 64.6864V58.9297H226.338V64.6864H225.582ZM227.73 64.6864V58.9297H228.487V64.0331H231.344V64.6864H227.73ZM232.199 64.6864V58.9297H232.955V64.6864H232.199ZM235.723 64.6864V59.5748H233.737V58.9297H238.482V59.5748H236.488V64.6864H235.723ZM240.777 64.6864V61.9917L240.94 62.4899L238.547 58.9297H239.426L241.265 61.7384H241.078L242.917 58.9297H243.771L241.379 62.4899L241.533 61.9917V64.6864H240.777Z" fill="black"></path>
<path d="M213.726 64.5753L216.266 58.8186H216.925L219.505 64.5753H218.724L218.016 62.9424L218.341 63.1381H214.85L215.208 62.9424L214.499 64.5753H213.726ZM216.583 59.668L215.313 62.689L215.118 62.5173H218.072L217.918 62.689L216.616 59.668H216.583Z" fill="black"></path>
<path fillRule="evenodd" clipRule="evenodd" d="M121.678 60.1256C122.406 59.7624 123.209 59.5725 124.026 59.5725C124.893 59.5721 125.758 59.7937 126.527 60.2122C128.034 61.0333 129.045 62.5503 129.241 64.2451C128.513 64.6083 127.71 64.7986 126.893 64.7986C126.025 64.7982 125.16 64.5773 124.391 64.1585C122.884 63.3377 121.873 61.8204 121.677 60.1256H121.678Z" fill="#D2AF6E"></path>
<path fillRule="evenodd" clipRule="evenodd" d="M169.325 59.8373C170.053 59.4741 170.856 59.2842 171.674 59.2842C172.541 59.2838 173.406 59.5054 174.175 59.9239C175.682 60.745 176.692 62.2619 176.889 63.9568C176.161 64.3199 175.358 64.5102 174.541 64.5102C173.673 64.5098 172.808 64.289 172.039 63.8701C170.532 63.0494 169.521 61.5321 169.325 59.8373Z" fill="#D2AF6E"></path>
</g>
<defs>
<clipPath id="clip0_9737_58429-3">
<rect width="244" height="76" fill="white"></rect>
</clipPath>
</defs>
</svg>